<svg xmlns="http://www.w3.org/2000/svg" width="291.67" height="149.24" viewBox="0 0 291.67 149.24">


      <g>
        <circle cx="145.83" cy="20.83" r="20.83" fill="#f21d2f"/>
        <circle cx="104.17" cy="63.77" r="20.83" fill="#f21d2f"/>
        <circle cx="187.5" cy="63.77" r="20.83" fill="#f21d2f"/>
        <circle cx="186.74" cy="127.53" r="20.83" fill="#f21d2f"/>
        <circle cx="270.83" cy="128.41" r="20.83" fill="#f21d2f"/>
        <circle cx="104.17" cy="127.53" r="20.83" fill="#f21d2f"/>
        <circle cx="20.83" cy="127.53" r="20.83" fill="#f21d2f"/>
        <g id="_9nKCT7" data-name="9nKCT7">
          <path d="M102.5,98.31l.14-8.76h2.47L105,98.16l4.12-4.25.11.1,0,0c0,.93,0,1.86,0,2.8a.47.47,0,0,1-.14.29l-5.38,5.39s0,0-.13.06l-1.88-1.93c-1.09-1.09-2.18-2.16-3.26-3.26a.73.73,0,0,1-.19-.47c0-.9,0-1.8,0-2.7l.11,0Z"/>
        </g>
        <g id="_9nKCT7-2" data-name="9nKCT7">
          <path d="M43.94,102.66l6.29-6.09L52,98.31l-6.19,6,5.92-.09v.15s0,0,0,.06c-.66.66-1.32,1.32-2,2a.51.51,0,0,1-.31.11H41.8l-.13,0c0-.88,0-1.79,0-2.69,0-1.54,0-3.07,0-4.61a.75.75,0,0,1,.19-.47c.62-.65,1.27-1.28,1.9-1.91l.11,0Z"/>
        </g>
        <g id="_9nKCT7-3" data-name="9nKCT7">
          <path d="M60.85,85.75l6.29-6.09,1.74,1.74-6.18,6,5.92-.08v.15l0,0-2,2a.47.47,0,0,1-.31.11H58.72l-.14,0c0-.88,0-1.79,0-2.7,0-1.53,0-3.07,0-4.6a.69.69,0,0,1,.2-.47c.62-.65,1.26-1.28,1.9-1.92l.11.05Z"/>
        </g>
        <g id="_9nKCT7-4" data-name="9nKCT7">
          <path d="M246.08,104.23,240,98l1.74-1.75,6,6.19-.09-5.92h.15s.05,0,.06,0c.66.66,1.32,1.32,2,2a.45.45,0,0,1,.1.3q0,3.81,0,7.62a.44.44,0,0,1,0,.13c-.88,0-1.79,0-2.69,0-1.54,0-3.07,0-4.61,0a.75.75,0,0,1-.47-.19c-.65-.62-1.28-1.26-1.91-1.9l.05-.11Z"/>
        </g>
        <g id="_9nKCT7-5" data-name="9nKCT7">
          <path d="M229.17,87.32,223.07,81l1.75-1.74,6,6.18-.09-5.92h.15s.06,0,.06,0c.66.66,1.32,1.32,2,2a.47.47,0,0,1,.11.31q0,3.81,0,7.61s0,0,0,.14l-2.7,0c-1.53,0-3.07,0-4.6,0a.74.74,0,0,1-.48-.2c-.64-.62-1.27-1.26-1.91-1.9l0-.11Z"/>
        </g>
        <g id="_9nKCT7-6" data-name="9nKCT7">
          <path d="M168,45.81l-6.09-6.29,1.74-1.74,6,6.18L169.53,38h.15s0,0,.06,0c.66.66,1.32,1.32,2,2a.49.49,0,0,1,.11.31q0,3.81,0,7.62a.44.44,0,0,1,0,.13c-.88,0-1.79,0-2.7,0h-4.6a.73.73,0,0,1-.47-.19c-.65-.62-1.28-1.27-1.92-1.9l.06-.12Z"/>
        </g>
        <g id="_9nKCT7-7" data-name="9nKCT7">
          <path d="M123,44.06,129.25,38,131,39.71l-6.19,6,5.92-.09v.15s0,.05,0,.06c-.66.65-1.32,1.31-2,2a.47.47,0,0,1-.31.11h-7.61l-.13,0c0-.88,0-1.79,0-2.7,0-1.53,0-3.07,0-4.6a.73.73,0,0,1,.19-.47c.62-.65,1.26-1.28,1.9-1.92l.11.05Z"/>
        </g>
        <g id="_9nKCT7-8" data-name="9nKCT7">
          <path d="M186.68,98.31l.14-8.75h2.47l-.14,8.6,4.12-4.25.11.11.05,0c0,.93,0,1.87,0,2.8a.52.52,0,0,1-.14.3l-5.38,5.38s0,0-.13.06l-1.89-1.93c-1.08-1.08-2.17-2.16-3.25-3.26a.73.73,0,0,1-.19-.47c0-.9,0-1.79,0-2.69l.11,0Z"/>
        </g>
      </g>


</svg>
