<svg xmlns="http://www.w3.org/2000/svg" width="154.71" height="155.02" viewBox="0 0 154.71 155.02">
  <g style="isolation: isolate">
    <g id="Layer_2" data-name="Layer 2">
      <g id="Vaccincation">
        <g>
          <path d="M119.32,3c4.66,3.14,21.87,21.8,32.73,32.77,3.66,3.69,3.48,10.58-.14,14.2s-10.53,3.71-14.31,0c-2.83-2.74-5.6-5.54-8.34-8.36-.6-.61-.9-.6-1.5,0q-6.7,6.78-13.5,13.47c-.76.76-.56,1.11.07,1.74q8.15,8.11,16.24,16.3a3.21,3.21,0,0,1-2.78,5.61,3.65,3.65,0,0,1-1.9-1.16c-2.06-2.08-4.17-4.11-6.19-6.23-.72-.76-1.13-.93-2-.07Q95.42,93.73,73.06,116.1c-3.35,3.35-6.69,6.72-10.08,10A17.17,17.17,0,0,1,42,129c-.78-.44-1.3-.5-1.87.26-.39.51-.92.92-1.37,1.4-3,3.18-6.74,3.88-10.82,2.82a2.27,2.27,0,0,0-2.59.74q-9.54,9.62-19.15,19.16A8.57,8.57,0,0,1,5,154.46a3.09,3.09,0,0,1-4-.4,3.12,3.12,0,0,1-.43-4,9.21,9.21,0,0,1,1.1-1.24q9.68-9.69,19.38-19.36a2,2,0,0,0,.58-2.22c-1.09-4.19-.41-8,2.9-11.08l.32-.32c1.68-1.69,1.68-1.69.63-3.87-3.34-6.92-2-14.45,3.6-20.07Q47.77,73.16,66.53,54.46c5.67-5.67,11.32-11.37,17-17,.86-.85,1-1.31,0-2.21-2.11-1.94-4.09-4-6.12-6.08-1.59-1.6-1.74-3.58-.38-4.94S80.43,23,82,24.61q8.05,8,16.08,16c.68.69,1,.91,1.85.09,4.67-4.75,9.41-9.43,14.19-14.2-3.07-3.05-6.1-6-9-9C100.87,13.14,100.44,6.1,106.43,2,111-1.08,114.19-.5,119.32,3Zm28.11,42.16c1.74-1.8,1.66-3.31-.34-5.31L116.6,9.31C116,8.67,115.35,8,114.67,7.4,113,6,111.53,6,109.89,7.58c-2,1.69-2,3.53-.16,5.42,3.33,3.37,6.69,6.71,10,10.06L141.9,45.19C143.88,47.16,145.72,47.12,147.43,45.12Zm-86,29.35c-.77-.8-1.55-1.58-2.28-2.4-.47-.53-.78-.39-1.21,0-8.41,8.43-16.9,16.78-25.21,25.3a10.14,10.14,0,0,0-.24,13.68c3.71,4,7.59,7.82,11.57,11.54a9.71,9.71,0,0,0,11.79,1c1-.6,1.31-1,.29-2-2.42-2.28-4.73-4.68-7.08-7s-2.06-4.13.56-5.95a4.11,4.11,0,0,1,4.15,1.51c.95,1.09,2.07,2,3.12,3,1.42,1.46,2.86,2.92,4.27,4.39.37.39.66.52,1.1.06,1.07-1.11,2.17-2.2,3.28-3.28.43-.42.31-.66-.16-.87-1.2-1.23-2.41-2.44-3.59-3.68a3.26,3.26,0,0,1-.16-4.72,3.19,3.19,0,0,1,4.71.16c1.17,1.12,2.32,2.26,3.42,3.43.53.56.88.66,1.44,0a27,27,0,0,1,2.68-2.67c.82-.7.6-1.11-.06-1.75-2.57-2.49-5.1-5-7.62-7.58-1.47-1.5-1.54-3.36-.23-4.7s3.29-1.33,4.83.17c1.76,1.73,3.49,3.5,5.25,5.24,1,1,2.06,2.77,3.16,2.83,1.27.06,2.12-1.92,3.29-2.85.88-.7.71-1.19,0-1.88C81.18,94.34,80,93,78.67,91.7Q70.07,83.08,61.47,74.47ZM66,69.67q9.43,9.48,18.88,19c1,1.06,2,3,3.25,2.86s2.15-1.93,3.28-2.93c.69-.61.72-1,0-1.65-2.54-2.45-5-5-7.51-7.46a3.77,3.77,0,0,1-1.26-2.17,3.09,3.09,0,0,1,1.76-3.37,3,3,0,0,1,3.74.65c2.62,2.59,5.24,5.17,7.81,7.81.66.68,1,.68,1.65,0a33.63,33.63,0,0,1,2.67-2.67c.62-.55.55-.9,0-1.43-1.18-1.1-2.31-2.25-3.43-3.42a3.18,3.18,0,0,1-.12-4.71,3.23,3.23,0,0,1,4.71.19q1.74,1.68,3.42,3.43c.46.48.77.62,1.32.06q3.64-3.73,7.38-7.38c.49-.48.41-.76,0-1.19L97.2,49.05c-2.33-2.37-4.7-4.7-7-7.11-.77-.82-1.2-.91-2.06,0Q77,53.18,65.76,64.36C63.06,67.06,63.06,67.06,66,69.67Zm37.78-23.61c.16.21.26.37.39.51,1.42,1.42,2.87,2.83,4.26,4.28.56.58.85.17,1.21-.19q6.82-6.84,13.67-13.66c.5-.49.58-.8,0-1.32-1.35-1.28-2.68-2.59-3.94-4-.6-.64-.93-.42-1.44.09q-6.75,6.8-13.55,13.56C104.19,45.58,104,45.81,103.76,46.06ZM31,128c1.14,0,4.58-2.32,4.85-3.59s-1.29-1.57-1.85-2.45a2.44,2.44,0,0,0-.42-.43c-2.92-2.92-2.92-2.92-5.54.32a3,3,0,0,0-.58,3.48A4.62,4.62,0,0,0,31,128Z" fill="#281a3b"/>
          <path d="M97.2,49.05l16.3,16.18c.44.43.52.71,0,1.19q-3.73,3.64-7.38,7.38c-.55.56-.86.42-1.32-.06q-1.68-1.76-3.42-3.43a3.23,3.23,0,0,0-4.71-.19,3.18,3.18,0,0,0,.12,4.71c1.12,1.17,2.25,2.32,3.43,3.42.57.53.64.88,0,1.43a33.63,33.63,0,0,0-2.67,2.67c-.61.7-1,.7-1.65,0-2.57-2.64-5.19-5.22-7.81-7.81a3,3,0,0,0-3.74-.65,3.09,3.09,0,0,0-1.76,3.37,3.77,3.77,0,0,0,1.26,2.17c2.51,2.49,5,5,7.51,7.46.7.67.67,1,0,1.65-1.13,1-2.1,2.81-3.28,2.93s-2.2-1.8-3.25-2.86Q75.4,79.18,66,69.67c0-.69.59-1,1-1.45,3-3,5.88-5.94,8.87-8.86,2.37-2.31,4.51-4.88,7.17-6.88A17.49,17.49,0,0,1,97.2,49.05Z" fill="#f2f2f2"/>
          <path d="M56.93,113.23c-1-1-2.17-2-3.12-3a4.11,4.11,0,0,0-4.15-1.51c-.58-.63-1.18-1.24-1.74-1.88-3.29-3.79-4.55-8.09-3.22-13a14.36,14.36,0,0,1,4-6.66c4.29-4.2,8.54-8.43,12.81-12.65q8.59,8.63,17.2,17.23C80,93,81.18,94.34,82.5,95.57c.75.69.92,1.18,0,1.88-1.17.93-2,2.91-3.29,2.85-1.1-.06-2.13-1.81-3.16-2.83-1.76-1.74-3.49-3.51-5.25-5.24-1.54-1.5-3.5-1.55-4.83-.17s-1.24,3.2.23,4.7c2.52,2.55,5.05,5.09,7.62,7.58.66.64.88,1,.06,1.75a27,27,0,0,0-2.68,2.67c-.56.62-.91.52-1.44,0-1.1-1.17-2.25-2.31-3.42-3.43a3.19,3.19,0,0,0-4.71-.16,3.26,3.26,0,0,0,.16,4.72c1.18,1.24,2.39,2.45,3.59,3.68-.29.62-.85.58-1.41.61A21.75,21.75,0,0,1,56.93,113.23Z" fill="#41aef2"/>
          <path d="M61.47,74.47C57.2,78.69,53,82.92,48.66,87.12a14.36,14.36,0,0,0-4,6.66c-1.33,4.93-.07,9.23,3.22,13,.56.64,1.16,1.25,1.74,1.88-2.62,1.82-2.8,3.71-.56,5.95s4.66,4.76,7.08,7c1,1,.7,1.35-.29,2a9.71,9.71,0,0,1-11.79-1c-4-3.72-7.86-7.56-11.57-11.54a10.14,10.14,0,0,1,.24-13.68c8.31-8.52,16.8-16.87,25.21-25.3.43-.43.74-.57,1.21,0C59.92,72.89,60.7,73.67,61.47,74.47Z" fill="#41aef2" style="mix-blend-mode: multiply"/>
          <path d="M109.89,7.58C111.53,6,113,6,114.67,7.4c.68.6,1.29,1.27,1.93,1.91l30.49,30.5c2,2,2.08,3.51.34,5.31a9.86,9.86,0,0,1-4.09-2.71Q128,27,112.6,11.67A10,10,0,0,1,109.89,7.58Z" fill="#575072"/>
          <path d="M97.2,49.05A17.49,17.49,0,0,0,83,52.48c-2.66,2-4.8,4.57-7.17,6.88-3,2.92-5.92,5.9-8.87,8.86-.41.42-1,.76-1,1.45-2.92-2.61-2.92-2.61-.22-5.31Q77,53.14,88.16,41.91c.86-.88,1.29-.79,2.06,0C92.5,44.35,94.87,46.68,97.2,49.05Z" fill="#c1d1d2"/>
          <path d="M103.76,46.06c.24-.25.43-.48.63-.69q6.78-6.78,13.55-13.56c.51-.51.84-.73,1.44-.09,1.26,1.37,2.59,2.68,3.94,4,.55.52.47.83,0,1.32q-6.86,6.81-13.67,13.66c-.36.36-.65.77-1.21.19-1.39-1.45-2.84-2.86-4.26-4.28C104,46.43,103.92,46.27,103.76,46.06Z" fill="#e9e9e9"/>
          <path d="M109.89,7.58a10,10,0,0,0,2.71,4.09Q128,27,143.34,42.41a9.86,9.86,0,0,0,4.09,2.71c-1.71,2-3.55,2-5.53.07L119.77,23.06c-3.35-3.35-6.71-6.69-10-10.06C107.85,11.11,107.93,9.27,109.89,7.58Z" fill="#363354"/>
          <path d="M31,128a4.62,4.62,0,0,1-3.54-2.67A3,3,0,0,1,28,121.8c2.62-3.24,2.62-3.24,5.54-.32a2.44,2.44,0,0,1,.42.43c.56.88,2.12,1.22,1.85,2.45S32.12,128,31,128Z" fill="#e9e9e9"/>
          <path d="M56.93,113.23a21.75,21.75,0,0,0,7.08.91c.56,0,1.12,0,1.41-.61.47.21.59.45.16.87-1.11,1.08-2.21,2.17-3.28,3.28-.44.46-.73.33-1.1-.06C59.79,116.15,58.35,114.69,56.93,113.23Z" fill="#41aef2" style="mix-blend-mode: multiply"/>
        </g>
      </g>
    </g>
  </g>
</svg>
